{"accessors":[{"bufferView":0,"byteOffset":0,"componentType":5126,"count":1950,"max":[0.5,1,0.5],"min":[-0.5,-1,-0.5],"normalized":false,"type":"VEC3"},{"bufferView":1,"byteOffset":0,"componentType":5126,"count":1950,"max":[1,0,1,1],"min":[-1,-0.000022,-1,1],"normalized":false,"type":"VEC4"},{"bufferView":2,"byteOffset":0,"componentType":5126,"count":1950,"max":[1,1,1],"min":[-1,-1,-1],"normalized":false,"type":"VEC3"},{"bufferView":3,"byteOffset":0,"componentType":5126,"count":1950,"max":[1,1],"min":[0,0],"normalized":false,"type":"VEC2"},{"bufferView":4,"byteOffset":0,"componentType":5125,"count":10368,"max":[1949],"min":[0],"normalized":false,"type":"SCALAR"},{"bufferView":5,"byteOffset":0,"componentType":5126,"count":36,"max":[1024,0.5,1024],"min":[-1024,-0.5,-1024],"normalized":false,"type":"VEC3"},{"bufferView":6,"byteOffset":0,"componentType":5126,"count":36,"max":[0,0,0.000076,-1],"min":[-1,-1,-1,-1],"normalized":false,"type":"VEC4"},{"bufferView":7,"byteOffset":0,"componentType":5126,"count":36,"max":[1,1,1],"min":[-1,-1,-1],"normalized":false,"type":"VEC3"},{"bufferView":8,"byteOffset":0,"componentType":5126,"count":36,"max":[1,1],"min":[0,0],"normalized":false,"type":"VEC2"},{"bufferView":9,"byteOffset":0,"componentType":5125,"count":36,"max":[35],"min":[0],"normalized":false,"type":"SCALAR"},{"bufferView":10,"byteOffset":0,"componentType":5126,"count":48,"max":[0.999979,0.999979,1],"min":[-1,-1,-1],"normalized":false,"type":"VEC3"},{"bufferView":11,"byteOffset":0,"componentType":5126,"count":48,"max":[1,1,0.000074,1],"min":[-1,-0.00003,-0.000031,-1],"normalized":false,"type":"VEC4"},{"bufferView":12,"byteOffset":0,"componentType":5126,"count":48,"max":[1,1,1],"min":[-1,-1,-1],"normalized":false,"type":"VEC3"},{"bufferView":13,"byteOffset":0,"componentType":5126,"count":48,"max":[0.874998,1],"min":[0.124987,0],"normalized":false,"type":"VEC2"},{"bufferView":14,"byteOffset":0,"componentType":5125,"count":84,"max":[47],"min":[0],"normalized":false,"type":"SCALAR"},{"bufferView":15,"byteOffset":0,"componentType":5126,"count":87084,"max":[617.799255,332.661407,435.708252],"min":[-776.6604,65.044868,-736.339844],"normalized":false,"type":"VEC3"},{"bufferView":16,"byteOffset":0,"componentType":5126,"count":87084,"max":[1,0.411305,1,1],"min":[-0.999987,-0.999847,-0.999989,1],"normalized":false,"type":"VEC4"},{"bufferView":17,"byteOffset":0,"componentType":5126,"count":87084,"max":[0.999848,1,1],"min":[-0.999848,-1,-1],"normalized":false,"type":"VEC3"},{"bufferView":18,"byteOffset":0,"componentType":5126,"count":87084,"max":[3627.196289,1],"min":[0,0],"normalized":false,"type":"VEC2"},{"bufferView":19,"byteOffset":0,"componentType":5125,"count":87084,"max":[87083],"min":[0],"normalized":false,"type":"SCALAR"},{"bufferView":20,"byteOffset":0,"componentType":5126,"count":87084,"max":[602.935608,334.06134,415.708435],"min":[-776.731018,65.441658,-716.762146],"normalized":false,"type":"VEC3"},{"bufferView":21,"byteOffset":0,"componentType":5126,"count":87084,"max":[1,0.414001,1,1],"min":[-0.999987,-0.999847,-0.999989,1],"normalized":false,"type":"VEC4"},{"bufferView":22,"byteOffset":0,"componentType":5126,"count":87084,"max":[0.999971,0.999002,1],"min":[-0.998366,-0.999848,-1],"normalized":false,"type":"VEC3"},{"bufferView":23,"byteOffset":0,"componentType":5126,"count":87084,"max":[3627.196289,1],"min":[0,0],"normalized":false,"type":"VEC2"},{"bufferView":24,"byteOffset":0,"componentType":5125,"count":87084,"max":[87083],"min":[0],"normalized":false,"type":"SCALAR"},{"bufferView":25,"byteOffset":0,"componentType":5126,"count":87084,"max":[618.230957,334.061401,436.708923],"min":[-776.740906,64.625488,-737.216919],"normalized":false,"type":"VEC3"},{"bufferView":26,"byteOffset":0,"componentType":5126,"count":87084,"max":[1,0.367066,1,1],"min":[-0.999983,-0.999847,-0.999977,1],"normalized":false,"type":"VEC4"},{"bufferView":27,"byteOffset":0,"componentType":5126,"count":87084,"max":[0.933651,0.999809,1],"min":[-0.998989,-0.999523,-1],"normalized":false,"type":"VEC3"},{"bufferView":28,"byteOffset":0,"componentType":5126,"count":87084,"max":[3627.196289,1],"min":[0,0],"normalized":false,"type":"VEC2"},{"bufferView":29,"byteOffset":0,"componentType":5125,"count":87084,"max":[87083],"min":[0],"normalized":false,"type":"SCALAR"},{"bufferView":30,"byteOffset":0,"componentType":5126,"count":23052,"max":[-243.060684,183.07431,436.679596],"min":[-518.769104,112.134018,-287.385284],"normalized":false,"type":"VEC3"},{"bufferView":31,"byteOffset":0,"componentType":5126,"count":23052,"max":[0.999994,0.042101,0.999903,1],"min":[-0.718106,-0.168897,-0.999821,1],"normalized":false,"type":"VEC4"},{"bufferView":32,"byteOffset":0,"componentType":5126,"count":23052,"max":[0.995163,0.999985,0.999997],"min":[-0.994658,-0.999986,-1],"normalized":false,"type":"VEC3"},{"bufferView":33,"byteOffset":0,"componentType":5126,"count":23052,"max":[959.2901,1],"min":[0,0],"normalized":false,"type":"VEC2"},{"bufferView":34,"byteOffset":0,"componentType":5125,"count":23052,"max":[23051],"min":[0],"normalized":false,"type":"SCALAR"},{"bufferView":35,"byteOffset":0,"componentType":5126,"count":23052,"max":[-242.367371,184.474243,418.249207],"min":[-500.028198,112.422401,-273.037598],"normalized":false,"type":"VEC3"},{"bufferView":36,"byteOffset":0,"componentType":5126,"count":23052,"max":[0.999999,0.052468,0.998995,1],"min":[-0.718234,-0.168897,-0.999821,1],"normalized":false,"type":"VEC4"},{"bufferView":37,"byteOffset":0,"componentType":5126,"count":23052,"max":[0.99516,0.999644,0.999996],"min":[-0.994652,-0.999999,-0.999994],"normalized":false,"type":"VEC3"},{"bufferView":38,"byteOffset":0,"componentType":5126,"count":23052,"max":[959.2901,1],"min":[0,0],"normalized":false,"type":"VEC2"},{"bufferView":39,"byteOffset":0,"componentType":5125,"count":23052,"max":[23051],"min":[0],"normalized":false,"type":"SCALAR"},{"bufferView":40,"byteOffset":0,"componentType":5126,"count":23052,"max":[-256.994232,184.474243,437.462799],"min":[-519.572632,112.134018,-288.099396],"normalized":false,"type":"VEC3"},{"bufferView":41,"byteOffset":0,"componentType":5126,"count":23052,"max":[0.995433,0.044242,0.999913,1],"min":[-0.716867,-0.168897,-0.999821,1],"normalized":false,"type":"VEC4"},{"bufferView":42,"byteOffset":0,"componentType":5126,"count":23052,"max":[0.995162,0.796248,0.999987],"min":[-0.994701,-0.91749,-0.999999],"normalized":false,"type":"VEC3"},{"bufferView":43,"byteOffset":0,"componentType":5126,"count":23052,"max":[959.2901,1],"min":[0,0],"normalized":false,"type":"VEC2"},{"bufferView":44,"byteOffset":0,"componentType":5125,"count":23052,"max":[23051],"min":[0],"normalized":false,"type":"SCALAR"}],"asset":{"generator":"Godot Engine v4.2.2.stable.official@15073afe3856abd2aa1622492fe50026c7d63dc1","version":"2.0"},"bufferViews":[{"buffer":0,"byteLength":23400,"byteOffset":0},{"buffer":0,"byteLength":31200,"byteOffset":23400},{"buffer":0,"byteLength":23400,"byteOffset":54600},{"buffer":0,"byteLength":15600,"byteOffset":78000},{"buffer":0,"byteLength":41472,"byteOffset":93600},{"buffer":0,"byteLength":432,"byteOffset":135072},{"buffer":0,"byteLength":576,"byteOffset":135504},{"buffer":0,"byteLength":432,"byteOffset":136080},{"buffer":0,"byteLength":288,"byteOffset":136512},{"buffer":0,"byteLength":144,"byteOffset":136800},{"buffer":0,"byteLength":576,"byteOffset":136944},{"buffer":0,"byteLength":768,"byteOffset":137520},{"buffer":0,"byteLength":576,"byteOffset":138288},{"buffer":0,"byteLength":384,"byteOffset":138864},{"buffer":0,"byteLength":336,"byteOffset":139248},{"buffer":0,"byteLength":1045008,"byteOffset":139584},{"buffer":0,"byteLength":1393344,"byteOffset":1184592},{"buffer":0,"byteLength":1045008,"byteOffset":2577936},{"buffer":0,"byteLength":696672,"byteOffset":3622944},{"buffer":0,"byteLength":348336,"byteOffset":4319616},{"buffer":0,"byteLength":1045008,"byteOffset":4667952},{"buffer":0,"byteLength":1393344,"byteOffset":5712960},{"buffer":0,"byteLength":1045008,"byteOffset":7106304},{"buffer":0,"byteLength":696672,"byteOffset":8151312},{"buffer":0,"byteLength":348336,"byteOffset":8847984},{"buffer":0,"byteLength":1045008,"byteOffset":9196320},{"buffer":0,"byteLength":1393344,"byteOffset":10241328},{"buffer":0,"byteLength":1045008,"byteOffset":11634672},{"buffer":0,"byteLength":696672,"byteOffset":12679680},{"buffer":0,"byteLength":348336,"byteOffset":13376352},{"buffer":0,"byteLength":276624,"byteOffset":13724688},{"buffer":0,"byteLength":368832,"byteOffset":14001312},{"buffer":0,"byteLength":276624,"byteOffset":14370144},{"buffer":0,"byteLength":184416,"byteOffset":14646768},{"buffer":0,"byteLength":92208,"byteOffset":14831184},{"buffer":0,"byteLength":276624,"byteOffset":14923392},{"buffer":0,"byteLength":368832,"byteOffset":15200016},{"buffer":0,"byteLength":276624,"byteOffset":15568848},{"buffer":0,"byteLength":184416,"byteOffset":15845472},{"buffer":0,"byteLength":92208,"byteOffset":16029888},{"buffer":0,"byteLength":276624,"byteOffset":16122096},{"buffer":0,"byteLength":368832,"byteOffset":16398720},{"buffer":0,"byteLength":276624,"byteOffset":16767552},{"buffer":0,"byteLength":184416,"byteOffset":17044176},{"buffer":0,"byteLength":92208,"byteOffset":17228592}],"buffers":[{"byteLength":17320800,"uri":"basic_track_level0.bin"}],"cameras":[{"perspective":{"yfov":1.67202544212341,"zfar":4000,"znear":0.0500000007450581},"type":"perspective"}],"extensions":{"KHR_lights_punctual":{"lights":[{"color":[0.64705902338028,0.815685987472534,0.84313702583313],"intensity":1,"range":340282346638528860000000000000000000000,"type":"directional"}]},"OMI_collider":{"colliders":[{"height":3.42799997329712,"radius":0.36599999666214,"type":"capsule"}]}},"extensionsRequired":["KHR_texture_transform"],"extensionsUsed":["GODOT_single_root","KHR_lights_punctual","KHR_texture_transform","OMI_collider","OMI_physics_body"],"images":[{"uri":"textures%2F_albedo000.png"},{"uri":"textures%2F_normal000.png"},{"uri":"textures%2F_albedo002.png"}],"materials":[{"extensions":{},"pbrMetallicRoughness":{"baseColorFactor":[0.99999988079071,0.99999988079071,0.99999988079071,1],"metallicFactor":0,"roughnessFactor":1}},{"extensions":{},"normalTexture":{"index":1,"scale":1},"pbrMetallicRoughness":{"baseColorFactor":[0.99999988079071,0.99999988079071,0.99999988079071,1],"baseColorTexture":{"extensions":{"KHR_texture_transform":{"scale":[1024,1024]}},"index":0},"metallicFactor":0,"roughnessFactor":1}},{"doubleSided":true,"extensions":{},"name":"Material","pbrMetallicRoughness":{"baseColorFactor":[0.799999892711639,0.799999892711639,0.799999892711639,1],"metallicFactor":0,"roughnessFactor":0.400000005960464}},{"extensions":{},"pbrMetallicRoughness":{"baseColorFactor":[0.99999988079071,0.99999988079071,0.99999988079071,1],"baseColorTexture":{"index":2},"metallicFactor":0,"roughnessFactor":1}},{"extensions":{},"pbrMetallicRoughness":{"baseColorFactor":[0.194617480039597,0.158960744738579,0.152926161885262,1],"metallicFactor":0.389999985694885,"roughnessFactor":0.699999988079071}},{"extensions":{},"pbrMetallicRoughness":{"baseColorFactor":[0.194617480039597,0.158960744738579,0.152926161885262,1],"metallicFactor":0.389999985694885,"roughnessFactor":0.699999988079071}}],"meshes":[{"extras":{"targetNames":[]},"primitives":[{"attributes":{"NORMAL":2,"POSITION":0,"TANGENT":1,"TEXCOORD_0":3},"indices":4,"material":0,"mode":4}]},{"extras":{"targetNames":[]},"primitives":[{"attributes":{"NORMAL":7,"POSITION":5,"TANGENT":6,"TEXCOORD_0":8},"indices":9,"material":1,"mode":4}]},{"extras":{"targetNames":[]},"primitives":[{"attributes":{"NORMAL":12,"POSITION":10,"TANGENT":11,"TEXCOORD_0":13},"indices":14,"material":2,"mode":4}]},{"extras":{"targetNames":[]},"primitives":[{"attributes":{"NORMAL":17,"POSITION":15,"TANGENT":16,"TEXCOORD_0":18},"indices":19,"material":3,"mode":4}]},{"extras":{"targetNames":[]},"primitives":[{"attributes":{"NORMAL":22,"POSITION":20,"TANGENT":21,"TEXCOORD_0":23},"indices":24,"material":4,"mode":4}]},{"extras":{"targetNames":[]},"primitives":[{"attributes":{"NORMAL":27,"POSITION":25,"TANGENT":26,"TEXCOORD_0":28},"indices":29,"material":5,"mode":4}]},{"extras":{"targetNames":[]},"primitives":[{"attributes":{"NORMAL":32,"POSITION":30,"TANGENT":31,"TEXCOORD_0":33},"indices":34,"material":3,"mode":4}]},{"extras":{"targetNames":[]},"primitives":[{"attributes":{"NORMAL":37,"POSITION":35,"TANGENT":36,"TEXCOORD_0":38},"indices":39,"material":4,"mode":4}]},{"extras":{"targetNames":[]},"primitives":[{"attributes":{"NORMAL":42,"POSITION":40,"TANGENT":41,"TEXCOORD_0":43},"indices":44,"material":5,"mode":4}]}],"nodes":[{"children":[1,4,5,6,7,19,23,27],"extensions":{},"name":"basic_track_level"},{"children":[2,3],"extensions":{},"name":"basic_track","translation":[-735.364990234375,73.0743026733398,424.292999267578]},{"extensions":{},"name":"Path3D"},{"extensions":{},"name":"Path3D2","translation":[0.0121612995862961,0,-0.31620800495148]},{"extensions":{"KHR_lights_punctual":{"light":0}},"name":"DirectionalLight3D","rotation":[-0.25213465094566,-0.21810711920261,-0.05844162777066,0.940979242324829],"translation":[0,500,0]},{"extensions":{},"mesh":0,"name":"MeshInstance3D","translation":[0,1.60992002487183,0]},{"extensions":{},"mesh":1,"name":"ground2"},{"children":[8,9,11,12,13,14,15,16,17,18],"extensions":{"OMI_physics_body":{"type":"character"}},"name":"Ship","rotation":[0,-0.71299970149994,0,0.701164364814758],"translation":[-770.806030273438,333.347991943359,424.628997802734]},{"camera":0,"extensions":{},"name":"Camera3D","rotation":[-0.07201094180346,0,0,0.997403800487518],"translation":[-0.02504150010645,0.553911983966827,0.735385000705719]},{"children":[10],"extensions":{},"name":"ship01"},{"extensions":{},"mesh":2,"name":"Cube","scale":[1.1702276468277,0.318384557962418,1.72727537155151]},{"extensions":{"OMI_collider":{"collider":0}},"name":"CollisionShape3D","rotation":[-0.70710676908493,0,0,0.70710676908493],"translation":[0.929444015026093,0,0]},{"extensions":{"OMI_collider":{"collider":0}},"name":"CollisionShape3D2","rotation":[-0.70710676908493,0,0,0.70710676908493],"translation":[-0.98881202936172,0,0]},{"extensions":{},"name":"cast_center"},{"extensions":{},"name":"cast_ground_detector","translation":[0,0,0.128841996192932]},{"extensions":{},"name":"cast_front","translation":[0,0,-1]},{"extensions":{},"name":"cast_rear","translation":[0,0,1]},{"extensions":{},"name":"cast_left","translation":[-1,0,0]},{"extensions":{},"name":"cast_right","translation":[1,0,0]},{"children":[20,21,22],"extensions":{},"name":"track_mesh"},{"extensions":{},"mesh":3,"name":"track_floor2"},{"extensions":{},"mesh":4,"name":"track_rail22"},{"extensions":{},"mesh":5,"name":"track_rail12","translation":[0,0.0748500972986221,0]},{"children":[24,25,26],"extensions":{},"name":"track_mesh2"},{"extensions":{},"mesh":6,"name":"track_floor4"},{"extensions":{},"mesh":7,"name":"track_rail24"},{"extensions":{},"mesh":8,"name":"track_rail14"},{"extensions":{},"name":"WorldEnvironment"}],"samplers":[{"magFilter":9729,"minFilter":9987,"wrapS":10497,"wrapT":10497}],"scene":0,"scenes":[{"nodes":[0]}],"textures":[{"sampler":0,"source":0},{"sampler":0,"source":1},{"sampler":0,"source":2}]}